<svg width="28" height="28" viewBox="0 0 28 28" fill="none" xmlns="http://www.w3.org/2000/svg">
<path d="M13.9715 2.33343C13.7849 2.3398 13.6053 2.40567 13.4588 2.52142L5.16797 9.05316C4.11569 9.88244 3.5 11.1496 3.5 12.4894V23.6251C3.5 24.4205 4.1629 25.0834 4.95833 25.0834H10.7917C11.5871 25.0834 12.25 24.4205 12.25 23.6251V17.7918C12.25 17.6197 12.3696 17.5001 12.5417 17.5001H15.4583C15.6304 17.5001 15.75 17.6197 15.75 17.7918V23.6251C15.75 24.4205 16.4129 25.0834 17.2083 25.0834H23.0417C23.8371 25.0834 24.5 24.4205 24.5 23.6251V12.4894C24.5 11.1496 23.8843 9.88244 22.832 9.05316L14.5412 2.52142C14.3794 2.3936 14.1776 2.32702 13.9715 2.33343ZM14 4.32269L21.7497 10.4283C22.3821 10.9267 22.75 11.6847 22.75 12.4894V23.3334H17.5V17.7918C17.5 16.6747 16.5754 15.7501 15.4583 15.7501H12.5417C11.4246 15.7501 10.5 16.6747 10.5 17.7918V23.3334H5.25V12.4894C5.25 11.6847 5.61793 10.9267 6.25033 10.4283L14 4.32269Z" fill="white"/>
</svg>
